<svg xmlns="http://www.w3.org/2000/svg" xmlns:xlink="http://www.w3.org/1999/xlink" xmlns:lucid="lucid" width="965.62" height="491.01"><g transform="translate(-349.888671875 -59.5)" lucid:page-tab-id="0_0"><path d="M522 360h60.4" stroke="#000" stroke-width="2" fill="none"/><path d="M522.03 360.98h-1.1l.07-.97-.03-.98h1.06z" stroke="#000" stroke-width=".05"/><path d="M596.4 360l-13 7.5v-15z" stroke="#000" stroke-width="2"/><path d="M761.4 360h42.3a6 6 0 0 0 6-6V205.1a6 6 0 0 1 6-6H843" stroke="#000" stroke-width="2" fill="none"/><path d="M761.43 360.98h-1.03v-1.96h1.03z" stroke="#000" stroke-width=".05"/><path d="M857 199.1l-13 7.5v-15z" stroke="#000" stroke-width="2"/><path d="M599.4 306a6 6 0 0 1 6-6h148a6 6 0 0 1 6 6v108a6 6 0 0 1-6 6h-148a6 6 0 0 1-6-6z" stroke="#4c535d" stroke-width="2" fill="#cfe4ff"/><use xlink:href="#a" transform="matrix(1,0,0,1,611.400519324098,312) translate(25.63736979166667 56.020833333333336)"/><path d="M480 320c22.1 0 40 17.9 40 40s-17.9 40-40 40h-80c-22.1 0-40-17.9-40-40s17.9-40 40-40z" stroke="#4c535d" stroke-width="2" fill="#f7f4e4"/><use xlink:href="#b" transform="matrix(1,0,0,1,365,325) translate(31.44661458333333 41.895833333333336)"/><path d="M903.67 305.8a7.8 7.8 0 0 1 7.55-5.8h116a4.6 4.6 0 0 1 4.45 5.8l-28.9 108.4a7.8 7.8 0 0 1-7.55 5.8h-116a4.6 4.6 0 0 1-4.45-5.8z" stroke="#4c535d" stroke-width="2" fill="#ffd6f5"/><use xlink:href="#c" transform="matrix(1,0,0,1,878.2211542716144,305) translate(16.622838541666674 62.77777777777778)"/><path d="M431.1 425.8v-.08a8.9 8.9 0 0 1 8.9-8.9 8.9 8.9 0 0 1 8.9 8.9 8.9 8.9 0 0 1-8.9 8.9 8.9 8.9 0 0 1-8.9-8.9v-.1" stroke="#000" stroke-width="2" fill="#fff"/><path d="M420 422.82a6 6 0 0 1 6-6h28a6 6 0 0 1 6 6V482a6 6 0 0 1-6 6h-28a6 6 0 0 1-6-6z" fill="none"/><path d="M440 434.62v24.9L460 488m-20-28.47L420 488m0-44.5h40" stroke="#000" stroke-width="2" fill="none"/><use xlink:href="#d" transform="matrix(1,0,0,1,340,488) translate(10.888671875 21.52777777777778)"/><use xlink:href="#e" transform="matrix(1,0,0,1,340,488) translate(92.29058159722221 21.52777777777778)"/><use xlink:href="#f" transform="matrix(1,0,0,1,340,488) translate(157.16688368055554 21.52777777777778)"/><path d="M440 413.32v-9.82" stroke="#3a414a" stroke-width="5" fill="none"/><path d="M442.48 416.26l-2.43-.44-1.72.14-.8.28v-2.98h4.95zM442.48 403.56h-4.96V401h4.96z" stroke="#3a414a" stroke-width=".05" fill="#3a414a"/><path d="M860 142.63a6 6 0 0 1 6-6h208a6 6 0 0 1 6 6V255.6a6 6 0 0 1-6 6H866a6 6 0 0 1-6-6zm22-6V261.6m-22-102.98h220" stroke="#4c535d" stroke-width="2" fill="#c3f7c8"/><use xlink:href="#g" transform="matrix(1,0,0,1,887,163.62530644893644) translate(52.968098958333336 53.49652777777778)"/><path d="M1019.26 360H1143" stroke="#3a414a" stroke-width="2" fill="none"/><path d="M1019.28 360.98H1018l.52-1.96h.76z" stroke="#3a414a" stroke-width=".05" fill="#3a414a"/><path d="M1157 360l-13 7.5v-15z" stroke="#3a414a" stroke-width="2" fill="#3a414a"/><path d="M744.4 440c8.28 0 15 6.72 15 15 0 8.3-6.72 15-15 15h-130c-8.28 0-15-6.7-15-15 0-8.28 6.72-15 15-15z" stroke="#979ea8" fill="#fff"/><use xlink:href="#h" transform="matrix(1,0,0,1,604.400519324098,445) translate(17.06668619791666 20.020833333333336)"/><use xlink:href="#i" transform="matrix(1,0,0,1,604.400519324098,445) translate(78.42085286458334 20.020833333333336)"/><path d="M757.62 480c8.28 0 15 6.7 15 15 0 8.28-6.72 15-15 15H601.18c-8.28 0-15-6.72-15-15 0-8.3 6.72-15 15-15z" stroke="#979ea8" fill="#fff"/><use xlink:href="#j" transform="matrix(1,0,0,1,591.1793650524836,484.994140625) translate(0.1570638020833428 16.014973958333332)"/><use xlink:href="#k" transform="matrix(1,0,0,1,591.1793650524836,484.994140625) translate(85.49788411458334 16.014973958333332)"/><path d="M757.62 520c8.28 0 15 6.72 15 15 0 8.3-6.72 15-15 15H601.18c-8.28 0-15-6.7-15-15 0-8.28 6.72-15 15-15z" stroke="#979ea8" fill="#fff"/><use xlink:href="#j" transform="matrix(1,0,0,1,591.1793650524836,525) translate(8.492350260416657 16.014973958333332)"/><use xlink:href="#l" transform="matrix(1,0,0,1,591.1793650524836,525) translate(93.83317057291666 16.014973958333332)"/><path d="M1078.22 440c8.28 0 15 6.72 15 15 0 8.3-6.72 15-15 15h-250c-8.28 0-15-6.7-15-15 0-8.28 6.72-15 15-15z" stroke="#979ea8" fill="#fff"/><use xlink:href="#m" transform="matrix(1,0,0,1,818.2211542716144,445) translate(5.55078125 16.014973958333332)"/><use xlink:href="#n" transform="matrix(1,0,0,1,818.2211542716144,445) translate(101.08365885416666 16.014973958333332)"/><use xlink:href="#o" transform="matrix(1,0,0,1,818.2211542716144,445) translate(143.48665364583331 16.014973958333332)"/><path d="M1078.22 480c8.28 0 15 6.7 15 15 0 8.28-6.72 15-15 15h-250c-8.28 0-15-6.72-15-15 0-8.3 6.72-15 15-15z" stroke="#979ea8" fill="#fff"/><use xlink:href="#p" transform="matrix(1,0,0,1,818.2211542716145,484.994140625) translate(4.496256510416686 16.014973958333332)"/><use xlink:href="#q" transform="matrix(1,0,0,1,818.2211542716145,484.994140625) translate(75.30582682291669 16.014973958333332)"/><use xlink:href="#r" transform="matrix(1,0,0,1,818.2211542716145,484.994140625) translate(158.49723307291669 16.014973958333332)"/><path d="M1078.22 520c8.28 0 15 6.72 15 15 0 8.3-6.72 15-15 15h-250c-8.28 0-15-6.7-15-15 0-8.28 6.72-15 15-15z" stroke="#979ea8" fill="#fff"/><use xlink:href="#s" transform="matrix(1,0,0,1,818.2211542716144,525) translate(49.94168619791666 20.440833333333337)"/><use xlink:href="#t" transform="matrix(1,0,0,1,818.2211542716144,525) translate(104.16141276041667 20.440833333333337)"/><use xlink:href="#u" transform="matrix(1,0,0,1,818.2211542716144,525) translate(167.33198567708334 20.440833333333337)"/><path d="M1035 60c8.28 0 15 6.72 15 15 0 8.3-6.72 15-15 15H905c-8.28 0-15-6.7-15-15 0-8.28 6.72-15 15-15z" stroke="#979ea8" fill="#fff"/><use xlink:href="#v" transform="matrix(1,0,0,1,895,65) translate(19.89725260416666 20.440833333333337)"/><use xlink:href="#w" transform="matrix(1,0,0,1,895,65) translate(59.96919270833333 20.440833333333337)"/><path d="M1090 98.22c8.28 0 15 6.72 15 15 0 8.3-6.72 15-15 15H850c-8.28 0-15-6.7-15-15 0-8.28 6.72-15 15-15z" stroke="#979ea8" fill="#fff"/><use xlink:href="#x" transform="matrix(1,0,0,1,840,103.2242539944312) translate(1.8828125 16.014973958333332)"/><use xlink:href="#y" transform="matrix(1,0,0,1,840,103.2242539944312) translate(100.09993489583333 16.014973958333332)"/><use xlink:href="#z" transform="matrix(1,0,0,1,840,103.2242539944312) translate(183.765625 16.014973958333332)"/><path d="M927.7 263.6V284" stroke="#3a414a" stroke-width="2" fill="none"/><path d="M928.67 263.63h-1.95v-1.03h1.95z" stroke="#3a414a" stroke-width=".05" fill="#3a414a"/><path d="M927.7 298l-7.5-13h15z" stroke="#3a414a" stroke-width="2" fill="#3a414a"/><path d="M1009.17 298v-22" stroke="#3a414a" stroke-width="2" fill="none"/><path d="M1010.14 299h-1.95v-1.03h1.94z" stroke="#3a414a" stroke-width=".05" fill="#3a414a"/><path d="M1009.17 262l7.5 13h-15z" stroke="#3a414a" stroke-width="2" fill="#3a414a"/><path d="M1260 360c0 27.6-22.4 50-50 50s-50-22.4-50-50 22.4-50 50-50 50 22.4 50 50z" stroke="#4c535d" stroke-width="2" fill="#cfe4ff"/><g><use xlink:href="#A" transform="matrix(1,0,0,1,1165,315) translate(12.51953125 53.125)"/></g><path d="M1300 270c8.28 0 15 6.7 15 15 0 8.28-6.72 15-15 15h-180c-8.28 0-15-6.72-15-15 0-8.3 6.72-15 15-15z" stroke="#979ea8" fill="#fff"/><g><use xlink:href="#B" transform="matrix(1,0,0,1,1110,274.994140625) translate(6.323893229166657 16.014973958333332)"/><use xlink:href="#C" transform="matrix(1,0,0,1,1110,274.994140625) translate(122.56380208333333 16.014973958333332)"/></g><path d="M1235.55 231.6c8.28 0 15 6.7 15 15 0 8.28-6.72 15-15 15h-51.1c-8.28 0-15-6.72-15-15 0-8.3 6.72-15 15-15z" stroke="#979ea8" fill="#fff"/><g><use xlink:href="#D" transform="matrix(1,0,0,1,1174.4509300833865,236.59308817049475) translate(9.525878906249996 16.014973958333332)"/></g><defs><path d="M180 0v-1490h528c311 0 458 177 458 395 0 191-114 278-244 313v14c139 9 302 137 302 371 0 225-148 397-499 397H180zm190-168h350c232 0 321-102 321-231 0-149-120-277-311-277H370v508zm0-668h328c160 0 286-101 286-255 0-129-87-231-280-231H370v486" id="E"/><path d="M471 26C259 26 90-98 90-318c0-256 228-303 435-329 202-27 287-16 287-108 0-139-79-219-234-219-161 0-248 86-283 164l-173-57c86-203 278-265 451-265 150 0 419 46 419 395V0H815v-152h-12C765-73 660 26 471 26zm31-159c199 0 310-134 310-271v-155c-30 35-226 55-295 64-131 17-246 59-246 186 0 116 97 176 231 176" id="F"/><path d="M613 24c-304 0-509-231-509-576 0-350 205-580 509-580 216 0 392 114 453 309l-173 49c-33-115-133-197-280-197-223 0-326 196-326 419 0 220 103 415 326 415 150 0 252-85 285-206l172 49C1010-95 832 24 613 24" id="G"/><path d="M158 0v-1490h180v865h22l478-493h223L593-638 1096 0H865L456-523 338-412V0H158" id="H"/><path d="M628 24c-324 0-524-230-524-574 0-343 198-582 503-582 237 0 487 146 487 559v75H286c9 234 145 362 343 362 132 0 231-58 273-172l174 48C1024-91 857 24 628 24zM287-650h624c-17-190-120-322-304-322-192 0-309 151-320 322" id="I"/><path d="M338-670V0H158v-1118h173l1 207c72-158 192-221 342-221 226 0 378 139 378 422V0H872v-695c0-172-96-275-252-275-161 0-282 109-282 300" id="J"/><path d="M577 24c-279 0-473-224-473-580 0-354 195-576 474-576 218 0 287 134 324 193h14v-551h180V0H922v-173h-20C865-111 790 24 577 24zm27-161c203 0 314-172 314-421 0-247-108-413-314-413-212 0-317 181-317 413 0 235 108 421 317 421" id="K"/><g id="a"><use transform="matrix(0.010091145833333334,0,0,0.010091145833333334,0,0)" xlink:href="#E"/><use transform="matrix(0.010091145833333334,0,0,0.010091145833333334,13.522135416666668,0)" xlink:href="#F"/><use transform="matrix(0.010091145833333334,0,0,0.010091145833333334,25.126953125,0)" xlink:href="#G"/><use transform="matrix(0.010091145833333334,0,0,0.010091145833333334,36.93359375,0)" xlink:href="#H"/><use transform="matrix(0.010091145833333334,0,0,0.010091145833333334,47.81184895833333,0)" xlink:href="#I"/><use transform="matrix(0.010091145833333334,0,0,0.010091145833333334,59.86067708333333,0)" xlink:href="#J"/><use transform="matrix(0.010091145833333334,0,0,0.010091145833333334,72.07096354166666,0)" xlink:href="#K"/></g><path d="M180 0v-1490h901v168H370v510h643v168H370V0H180" id="L"/><path d="M158 0v-1118h174v172h12c41-113 157-188 290-188 26 0 70 2 91 3v181c-11-2-60-10-108-10-161 0-279 109-279 260V0H158" id="M"/><path d="M613 24c-304 0-509-231-509-576 0-350 205-580 509-580 305 0 511 230 511 580 0 345-206 576-511 576zm0-161c226 0 329-195 329-415 0-222-103-419-329-419-223 0-326 196-326 419 0 220 103 415 326 415" id="N"/><path d="M598-1118v154H368v674c0 100 37 144 132 144 23 0 62-6 92-12L629-6c-37 13-88 20-134 20-193 0-307-107-307-290v-688H20v-154h168v-266h180v266h230" id="O"/><g id="b"><use transform="matrix(0.010091145833333334,0,0,0.010091145833333334,0,0)" xlink:href="#L"/><use transform="matrix(0.010091145833333334,0,0,0.010091145833333334,11.5947265625,0)" xlink:href="#M"/><use transform="matrix(0.010091145833333334,0,0,0.010091145833333334,19.031901041666668,0)" xlink:href="#N"/><use transform="matrix(0.010091145833333334,0,0,0.010091145833333334,31.423828125000004,0)" xlink:href="#J"/><use transform="matrix(0.010091145833333334,0,0,0.010091145833333334,43.634114583333336,0)" xlink:href="#O"/><use transform="matrix(0.010091145833333334,0,0,0.010091145833333334,50.193359375,0)" xlink:href="#I"/><use transform="matrix(0.010091145833333334,0,0,0.010091145833333334,62.24218750000001,0)" xlink:href="#J"/><use transform="matrix(0.010091145833333334,0,0,0.010091145833333334,74.45247395833334,0)" xlink:href="#K"/></g><path d="M180 0v-1490h510c348 0 508 209 508 474 0 266-160 477-507 477H370V0H180zm190-706h312c236 0 327-133 327-310 0-176-91-307-329-307H370v617" id="P"/><path d="M538 24C308 24 148-78 108-271l171-41c32 123 123 178 257 178 156 0 256-77 256-169 0-77-54-128-164-154l-186-44c-203-48-300-148-300-305 0-192 176-326 414-326 230 0 351 112 402 269l-163 42c-31-80-94-158-238-158-133 0-233 69-233 162 0 83 57 129 188 160l169 40c203 48 298 149 298 302 0 196-179 339-441 339" id="Q"/><path d="M158 0v-1118h180V0H158zm91-1301c-68 0-125-53-125-119s57-119 125-119c69 0 126 53 126 119s-57 119-126 119" id="R"/><path d="M611 442c-248 0-391-105-460-228l146-94c47 65 117 165 314 165 178 0 307-82 307-266v-224h-17C863-141 792-18 576-18c-268 0-472-195-472-546 0-346 197-568 476-568 216 0 288 133 326 193h17v-179h175V29c0 289-215 413-487 413zm-5-620c203 0 314-146 314-390 0-237-108-403-314-403-213 0-319 180-319 403 0 230 109 390 319 390" id="S"/><g id="c"><use transform="matrix(0.010850694444444444,0,0,0.010850694444444444,0,0)" xlink:href="#P"/><use transform="matrix(0.010850694444444444,0,0,0.010850694444444444,14.192708333333332,0)" xlink:href="#M"/><use transform="matrix(0.010850694444444444,0,0,0.010850694444444444,22.189670138888886,0)" xlink:href="#N"/><use transform="matrix(0.010850694444444444,0,0,0.010850694444444444,35.514322916666664,0)" xlink:href="#G"/><use transform="matrix(0.010850694444444444,0,0,0.010850694444444444,48.209635416666664,0)" xlink:href="#I"/><use transform="matrix(0.010850694444444444,0,0,0.010850694444444444,61.16536458333333,0)" xlink:href="#Q"/><use transform="matrix(0.010850694444444444,0,0,0.010850694444444444,72.89496527777777,0)" xlink:href="#Q"/><use transform="matrix(0.010850694444444444,0,0,0.010850694444444444,84.62456597222221,0)" xlink:href="#R"/><use transform="matrix(0.010850694444444444,0,0,0.010850694444444444,90.00651041666666,0)" xlink:href="#J"/><use transform="matrix(0.010850694444444444,0,0,0.010850694444444444,103.13585069444441,0)" xlink:href="#S"/></g><path d="M763 24c-353 0-583-224-583-531v-983h190v968c0 214 149 370 393 370 243 0 391-156 391-370v-968h190v983c0 307-230 531-581 531" id="T"/><path d="M158 418v-1536h174v179h20c37-59 106-193 324-193 279 0 474 222 474 576 0 356-194 580-473 580-213 0-288-135-325-197h-14v591H158zm492-555c209 0 317-186 317-421 0-232-105-413-317-413-206 0-314 166-314 413 0 249 111 421 314 421" id="U"/><path d="M338-1490V0H158v-1490h180" id="V"/><g id="d"><use transform="matrix(0.010850694444444444,0,0,0.010850694444444444,0,0)" xlink:href="#T"/><use transform="matrix(0.010850694444444444,0,0,0.010850694444444444,16.536458333333332,0)" xlink:href="#U"/><use transform="matrix(0.010850694444444444,0,0,0.010850694444444444,30.143229166666664,0)" xlink:href="#V"/><use transform="matrix(0.010850694444444444,0,0,0.010850694444444444,35.52517361111111,0)" xlink:href="#N"/><use transform="matrix(0.010850694444444444,0,0,0.010850694444444444,49.06684027777778,0)" xlink:href="#F"/><use transform="matrix(0.010850694444444444,0,0,0.010850694444444444,61.545138888888886,0)" xlink:href="#K"/></g><path d="M180 0v-1490h908v168H370v486h669v168H370v500h727V0H180" id="W"/><g id="e"><use transform="matrix(0.010850694444444444,0,0,0.010850694444444444,0,0)" xlink:href="#W"/><use transform="matrix(0.010850694444444444,0,0,0.010850694444444444,13.35720486111111,0)" xlink:href="#P"/><use transform="matrix(0.010850694444444444,0,0,0.010850694444444444,27.549913194444443,0)" xlink:href="#T"/><use transform="matrix(0.010850694444444444,0,0,0.010850694444444444,44.08637152777777,0)" xlink:href="#E"/></g><path d="M678-1118v154H420V0H240v-964H20v-154h220v-149c0-194 155-293 318-293 85 0 141 18 168 30l-50 154c-19-6-47-17-97-17-111 0-159 58-159 166v109h258" id="X"/><g id="f"><use transform="matrix(0.010850694444444444,0,0,0.010850694444444444,0,0)" xlink:href="#X"/><use transform="matrix(0.010850694444444444,0,0,0.010850694444444444,8.22482638888889,0)" xlink:href="#R"/><use transform="matrix(0.010850694444444444,0,0,0.010850694444444444,13.606770833333332,0)" xlink:href="#V"/><use transform="matrix(0.010850694444444444,0,0,0.010850694444444444,18.98871527777778,0)" xlink:href="#I"/></g><path d="M657 26c-323 0-524-166-541-416h195c15 169 171 246 346 246 202 0 356-106 356-265 5-203-294-238-475-293-239-73-380-191-380-389 0-252 224-419 512-419 294 0 499 171 508 396H992c-17-145-151-228-328-228-193 0-321 102-321 242 0 156 175 211 284 241l149 41c160 44 422 134 422 412 0 244-197 432-541 432" id="Y"/><g id="g"><use transform="matrix(0.010850694444444444,0,0,0.010850694444444444,0,0)" xlink:href="#Y"/><use transform="matrix(0.010850694444444444,0,0,0.010850694444444444,14.2578125,0)" xlink:href="#O"/><use transform="matrix(0.010850694444444444,0,0,0.010850694444444444,21.31076388888889,0)" xlink:href="#N"/><use transform="matrix(0.010850694444444444,0,0,0.010850694444444444,34.635416666666664,0)" xlink:href="#M"/><use transform="matrix(0.010850694444444444,0,0,0.010850694444444444,43.00130208333333,0)" xlink:href="#F"/><use transform="matrix(0.010850694444444444,0,0,0.010850694444444444,55.47960069444444,0)" xlink:href="#S"/><use transform="matrix(0.010850694444444444,0,0,0.010850694444444444,69.10807291666666,0)" xlink:href="#I"/></g><g id="h"><use transform="matrix(0.010091145833333334,0,0,0.010091145833333334,0,0)" xlink:href="#P"/><use transform="matrix(0.010091145833333334,0,0,0.010091145833333334,13.19921875,0)" xlink:href="#F"/><use transform="matrix(0.010091145833333334,0,0,0.010091145833333334,24.804036458333336,0)" xlink:href="#M"/><use transform="matrix(0.010091145833333334,0,0,0.010091145833333334,32.584309895833336,0)" xlink:href="#Q"/><use transform="matrix(0.010091145833333334,0,0,0.010091145833333334,43.49283854166667,0)" xlink:href="#I"/></g><g id="i"><use transform="matrix(0.010091145833333334,0,0,0.010091145833333334,0,0)" xlink:href="#W"/><use transform="matrix(0.010091145833333334,0,0,0.010091145833333334,12.422200520833334,0)" xlink:href="#P"/><use transform="matrix(0.010091145833333334,0,0,0.010091145833333334,25.621419270833336,0)" xlink:href="#T"/><use transform="matrix(0.010091145833333334,0,0,0.010091145833333334,41.000325520833336,0)" xlink:href="#E"/></g><path d="M65 0l393-574-370-544h210c88 136 192 297 267 435 67-142 176-302 264-435h206L661-564 1053 0H844c-94-144-206-310-287-458C484-308 366-142 273 0H65" id="Z"/><g id="j"><use transform="matrix(0.010091145833333334,0,0,0.010091145833333334,0,0)" xlink:href="#W"/><use transform="matrix(0.010091145833333334,0,0,0.010091145833333334,12.422200520833334,0)" xlink:href="#Z"/><use transform="matrix(0.010091145833333334,0,0,0.010091145833333334,24.107747395833336,0)" xlink:href="#O"/><use transform="matrix(0.010091145833333334,0,0,0.010091145833333334,30.86881510416667,0)" xlink:href="#M"/><use transform="matrix(0.010091145833333334,0,0,0.010091145833333334,38.64908854166667,0)" xlink:href="#F"/><use transform="matrix(0.010091145833333334,0,0,0.010091145833333334,50.25390625,0)" xlink:href="#G"/><use transform="matrix(0.010091145833333334,0,0,0.010091145833333334,62.06054687500001,0)" xlink:href="#O"/><use transform="matrix(0.010091145833333334,0,0,0.010091145833333334,68.61979166666667,0)" xlink:href="#Q"/></g><path d="M158 0v-1118h175l1 205c55-151 181-225 313-225 147 0 245 90 285 228 53-141 190-228 352-228 194 0 352 125 352 384V0h-181v-749c0-161-105-225-225-225-151 0-243 103-243 244V0H807v-767c0-124-93-207-219-207-131 0-250 92-250 270V0H158" id="aa"/><g id="k"><use transform="matrix(0.010091145833333334,0,0,0.010091145833333334,0,0)" xlink:href="#aa"/><use transform="matrix(0.010091145833333334,0,0,0.010091145833333334,18.103515625,0)" xlink:href="#I"/><use transform="matrix(0.010091145833333334,0,0,0.010091145833333334,30.15234375,0)" xlink:href="#O"/><use transform="matrix(0.010091145833333334,0,0,0.010091145833333334,37.014322916666664,0)" xlink:href="#F"/><use transform="matrix(0.010091145833333334,0,0,0.010091145833333334,48.619140625,0)" xlink:href="#K"/><use transform="matrix(0.010091145833333334,0,0,0.010091145833333334,61.2734375,0)" xlink:href="#F"/><use transform="matrix(0.010091145833333334,0,0,0.010091145833333334,72.87825520833333,0)" xlink:href="#O"/><use transform="matrix(0.010091145833333334,0,0,0.010091145833333334,79.74023437499999,0)" xlink:href="#F"/></g><path d="M338-670V0H158v-1490h180v566c73-149 190-208 336-208 226 0 379 139 379 422V0H872v-695c0-172-96-275-252-275-161 0-282 109-282 300" id="ab"/><g id="l"><use transform="matrix(0.010091145833333334,0,0,0.010091145833333334,0,0)" xlink:href="#G"/><use transform="matrix(0.010091145833333334,0,0,0.010091145833333334,11.806640625,0)" xlink:href="#ab"/><use transform="matrix(0.010091145833333334,0,0,0.010091145833333334,24.027018229166668,0)" xlink:href="#F"/><use transform="matrix(0.010091145833333334,0,0,0.010091145833333334,35.6318359375,0)" xlink:href="#U"/><use transform="matrix(0.010091145833333334,0,0,0.010091145833333334,48.2861328125,0)" xlink:href="#O"/><use transform="matrix(0.010091145833333334,0,0,0.010091145833333334,54.84537760416667,0)" xlink:href="#I"/><use transform="matrix(0.010091145833333334,0,0,0.010091145833333334,66.89420572916667,0)" xlink:href="#M"/></g><path d="M789 20c-398 0-667-293-667-764 0-473 273-766 655-766 315 0 558 198 612 487h-196c-61-191-204-311-415-311-262 0-471 207-471 590 0 380 208 588 482 588 249 0 420-165 425-427H828v-166h572v163c0 370-256 606-611 606" id="ac"/><g id="m"><use transform="matrix(0.010091145833333334,0,0,0.010091145833333334,0,0)" xlink:href="#ac"/><use transform="matrix(0.010091145833333334,0,0,0.010091145833333334,15.419270833333334,0)" xlink:href="#I"/><use transform="matrix(0.010091145833333334,0,0,0.010091145833333334,27.468098958333336,0)" xlink:href="#J"/><use transform="matrix(0.010091145833333334,0,0,0.010091145833333334,39.67838541666667,0)" xlink:href="#I"/><use transform="matrix(0.010091145833333334,0,0,0.010091145833333334,51.72721354166667,0)" xlink:href="#M"/><use transform="matrix(0.010091145833333334,0,0,0.010091145833333334,59.50748697916667,0)" xlink:href="#F"/><use transform="matrix(0.010091145833333334,0,0,0.010091145833333334,71.1123046875,0)" xlink:href="#O"/><use transform="matrix(0.010091145833333334,0,0,0.010091145833333334,77.67154947916666,0)" xlink:href="#I"/></g><g id="n"><use transform="matrix(0.010091145833333334,0,0,0.010091145833333334,0,0)" xlink:href="#O"/><use transform="matrix(0.010091145833333334,0,0,0.010091145833333334,6.559244791666667,0)" xlink:href="#I"/><use transform="matrix(0.010091145833333334,0,0,0.010091145833333334,18.143880208333336,0)" xlink:href="#Z"/><use transform="matrix(0.010091145833333334,0,0,0.010091145833333334,29.829427083333336,0)" xlink:href="#O"/></g><path d="M677 24c-213 0-288-135-325-197h-20V0H158v-1490h180v551h14c37-59 106-193 324-193 279 0 474 222 474 576 0 356-194 580-473 580zm-27-161c209 0 317-186 317-421 0-232-105-413-317-413-206 0-314 166-314 413 0 249 111 421 314 421" id="ad"/><g id="o"><use transform="matrix(0.010091145833333334,0,0,0.010091145833333334,0,0)" xlink:href="#I"/><use transform="matrix(0.010091145833333334,0,0,0.010091145833333334,12.048828125,0)" xlink:href="#aa"/><use transform="matrix(0.010091145833333334,0,0,0.010091145833333334,30.15234375,0)" xlink:href="#ad"/><use transform="matrix(0.010091145833333334,0,0,0.010091145833333334,42.806640625,0)" xlink:href="#I"/><use transform="matrix(0.010091145833333334,0,0,0.010091145833333334,54.85546875,0)" xlink:href="#K"/><use transform="matrix(0.010091145833333334,0,0,0.010091145833333334,67.509765625,0)" xlink:href="#K"/><use transform="matrix(0.010091145833333334,0,0,0.010091145833333334,80.1640625,0)" xlink:href="#R"/><use transform="matrix(0.010091145833333334,0,0,0.010091145833333334,85.16927083333331,0)" xlink:href="#J"/><use transform="matrix(0.010091145833333334,0,0,0.010091145833333334,97.37955729166666,0)" xlink:href="#S"/><use transform="matrix(0.010091145833333334,0,0,0.010091145833333334,110.05403645833331,0)" xlink:href="#Q"/></g><path d="M783 20c-382 0-661-292-661-764 0-473 279-766 661-766 302 0 548 182 601 489h-190c-42-204-217-313-411-313-268 0-476 208-476 590 0 381 209 588 476 588 195 0 369-110 411-313h190c-52 303-296 489-601 489" id="ae"/><g id="p"><use transform="matrix(0.010091145833333334,0,0,0.010091145833333334,0,0)" xlink:href="#ae"/><use transform="matrix(0.010091145833333334,0,0,0.010091145833333334,15.096354166666668,0)" xlink:href="#M"/><use transform="matrix(0.010091145833333334,0,0,0.010091145833333334,22.533528645833336,0)" xlink:href="#I"/><use transform="matrix(0.010091145833333334,0,0,0.010091145833333334,34.7841796875,0)" xlink:href="#F"/><use transform="matrix(0.010091145833333334,0,0,0.010091145833333334,46.388997395833336,0)" xlink:href="#O"/><use transform="matrix(0.010091145833333334,0,0,0.010091145833333334,52.9482421875,0)" xlink:href="#I"/></g><g id="q"><use transform="matrix(0.010091145833333334,0,0,0.010091145833333334,0,0)" xlink:href="#V"/><use transform="matrix(0.010091145833333334,0,0,0.010091145833333334,5.005208333333334,0)" xlink:href="#N"/><use transform="matrix(0.010091145833333334,0,0,0.010091145833333334,17.397135416666668,0)" xlink:href="#G"/><use transform="matrix(0.010091145833333334,0,0,0.010091145833333334,29.405598958333336,0)" xlink:href="#F"/><use transform="matrix(0.010091145833333334,0,0,0.010091145833333334,41.01041666666667,0)" xlink:href="#O"/><use transform="matrix(0.010091145833333334,0,0,0.010091145833333334,47.771484375,0)" xlink:href="#R"/><use transform="matrix(0.010091145833333334,0,0,0.010091145833333334,52.77669270833334,0)" xlink:href="#N"/><use transform="matrix(0.010091145833333334,0,0,0.010091145833333334,65.16861979166667,0)" xlink:href="#J"/></g><path d="M537 14c-226 0-379-139-379-422v-710h180v695c0 172 97 275 253 275 160 0 281-109 281-300v-670h181V0H879v-209C806-46 684 14 537 14" id="af"/><g id="r"><use transform="matrix(0.010091145833333334,0,0,0.010091145833333334,0,0)" xlink:href="#Q"/><use transform="matrix(0.010091145833333334,0,0,0.010091145833333334,10.908528645833334,0)" xlink:href="#af"/><use transform="matrix(0.010091145833333334,0,0,0.010091145833333334,23.12890625,0)" xlink:href="#aa"/><use transform="matrix(0.010091145833333334,0,0,0.010091145833333334,41.232421875,0)" xlink:href="#aa"/><use transform="matrix(0.010091145833333334,0,0,0.010091145833333334,59.3359375,0)" xlink:href="#F"/><use transform="matrix(0.010091145833333334,0,0,0.010091145833333334,70.94075520833333,0)" xlink:href="#M"/><use transform="matrix(0.010091145833333334,0,0,0.010091145833333334,79.0439453125,0)" xlink:href="#R"/><use transform="matrix(0.010091145833333334,0,0,0.010091145833333334,84.04915364583331,0)" xlink:href="#I"/><use transform="matrix(0.010091145833333334,0,0,0.010091145833333334,96.09798177083331,0)" xlink:href="#Q"/></g><g id="s"><use transform="matrix(0.010091145833333334,0,0,0.010091145833333334,0,0)" xlink:href="#E"/><use transform="matrix(0.010091145833333334,0,0,0.010091145833333334,13.522135416666668,0)" xlink:href="#af"/><use transform="matrix(0.010091145833333334,0,0,0.010091145833333334,25.742513020833336,0)" xlink:href="#R"/><use transform="matrix(0.010091145833333334,0,0,0.010091145833333334,30.74772135416667,0)" xlink:href="#V"/><use transform="matrix(0.010091145833333334,0,0,0.010091145833333334,35.75292968750001,0)" xlink:href="#K"/></g><path d="M180 0v-1490h270l367 940c28 72 75 218 110 339 35-117 81-264 110-339l362-940h271V0h-187c2-448-5-837 7-1287-157 497-311 829-483 1287H842C666-458 514-784 354-1284c12 438 5 843 7 1284H180" id="ag"/><path d="M154 0v-137l495-537c165-179 249-281 249-418 0-156-121-253-280-253-170 0-278 110-278 278H158c0-264 200-443 465-443 266 0 455 183 455 416 0 161-73 288-336 568L416-179v12h687V0H154" id="ah"/><path d="M626 20c-262 0-458-168-468-396h184c12 133 134 229 284 229 180 0 311-137 311-326 0-192-136-335-323-335-92 0-196 33-255 78l-178-22 88-738h784v167H429l-51 435h8c61-51 160-87 263-87 273 0 474 211 474 499 0 286-210 496-497 496" id="ai"/><g id="t"><use transform="matrix(0.010091145833333334,0,0,0.010091145833333334,0,0)" xlink:href="#E"/><use transform="matrix(0.010091145833333334,0,0,0.010091145833333334,13.522135416666668,0)" xlink:href="#ag"/><use transform="matrix(0.010091145833333334,0,0,0.010091145833333334,32.190755208333336,0)" xlink:href="#ah"/><use transform="matrix(0.010091145833333334,0,0,0.010091145833333334,44.79459635416667,0)" xlink:href="#ai"/></g><g id="u"><use transform="matrix(0.010091145833333334,0,0,0.010091145833333334,0,0)" xlink:href="#R"/><use transform="matrix(0.010091145833333334,0,0,0.010091145833333334,5.005208333333334,0)" xlink:href="#J"/><use transform="matrix(0.010091145833333334,0,0,0.010091145833333334,17.215494791666668,0)" xlink:href="#K"/><use transform="matrix(0.010091145833333334,0,0,0.010091145833333334,29.869791666666668,0)" xlink:href="#I"/><use transform="matrix(0.010091145833333334,0,0,0.010091145833333334,41.454427083333336,0)" xlink:href="#Z"/></g><g id="v"><use transform="matrix(0.010091145833333334,0,0,0.010091145833333334,0,0)" xlink:href="#L"/><use transform="matrix(0.010091145833333334,0,0,0.010091145833333334,12.2001953125,0)" xlink:href="#R"/><use transform="matrix(0.010091145833333334,0,0,0.010091145833333334,17.205403645833336,0)" xlink:href="#V"/><use transform="matrix(0.010091145833333334,0,0,0.010091145833333334,22.21061197916667,0)" xlink:href="#I"/></g><path d="M140 405l46-156c120 36 205 19 263-150l32-93L54-1118h197c107 313 237 620 324 950 87-331 219-637 326-950h196L606 167c-68 178-176 259-334 259-64 0-113-12-132-21" id="aj"/><g id="w"><use transform="matrix(0.010091145833333334,0,0,0.010091145833333334,0,0)" xlink:href="#Q"/><use transform="matrix(0.010091145833333334,0,0,0.010091145833333334,10.908528645833334,0)" xlink:href="#aj"/><use transform="matrix(0.010091145833333334,0,0,0.010091145833333334,22.5234375,0)" xlink:href="#Q"/><use transform="matrix(0.010091145833333334,0,0,0.010091145833333334,33.431966145833336,0)" xlink:href="#O"/><use transform="matrix(0.010091145833333334,0,0,0.010091145833333334,39.99121093750001,0)" xlink:href="#I"/><use transform="matrix(0.010091145833333334,0,0,0.010091145833333334,52.0400390625,0)" xlink:href="#aa"/></g><path d="M645 0H180v-1490h484c435 0 692 280 692 742 0 466-257 748-711 748zM370-168h263c363 0 539-218 539-580 0-358-176-574-521-574H370v1154" id="ak"/><g id="x"><use transform="matrix(0.010091145833333334,0,0,0.010091145833333334,0,0)" xlink:href="#ak"/><use transform="matrix(0.010091145833333334,0,0,0.010091145833333334,14.914713541666668,0)" xlink:href="#F"/><use transform="matrix(0.010091145833333334,0,0,0.010091145833333334,26.51953125,0)" xlink:href="#O"/><use transform="matrix(0.010091145833333334,0,0,0.010091145833333334,33.381510416666664,0)" xlink:href="#F"/><use transform="matrix(0.010091145833333334,0,0,0.010091145833333334,44.986328125,0)" xlink:href="#ad"/><use transform="matrix(0.010091145833333334,0,0,0.010091145833333334,57.842447916666664,0)" xlink:href="#F"/><use transform="matrix(0.010091145833333334,0,0,0.010091145833333334,69.447265625,0)" xlink:href="#Q"/><use transform="matrix(0.010091145833333334,0,0,0.010091145833333334,80.35579427083333,0)" xlink:href="#I"/></g><path d="M218-607c0-325 108-727 258-974h175c-155 315-250 682-250 974 0 265 78 531 250 886H476C306-10 218-315 218-607" id="al"/><path d="M784 20c-382 0-662-292-662-764 0-473 280-766 662-766s660 293 660 766c0 282-99 499-260 629l192 255h-198L1049-33C969 2 880 20 784 20zm-62-486h198l156 205c112-98 183-261 183-483 0-383-209-590-475-590-268 0-477 208-477 590 0 380 209 588 477 588 54 0 106-9 154-25" id="am"/><path d="M180 0v-1490h190v1322h690V0H180" id="an"/><path d="M128 359l88-567h206L266 359H128" id="ao"/><g id="y"><use transform="matrix(0.010091145833333334,0,0,0.010091145833333334,0,0)" xlink:href="#al"/><use transform="matrix(0.010091145833333334,0,0,0.010091145833333334,7.5380859375,0)" xlink:href="#Y"/><use transform="matrix(0.010091145833333334,0,0,0.010091145833333334,20.7978515625,0)" xlink:href="#am"/><use transform="matrix(0.010091145833333334,0,0,0.010091145833333334,36.6005859375,0)" xlink:href="#an"/><use transform="matrix(0.010091145833333334,0,0,0.010091145833333334,48.2861328125,0)" xlink:href="#R"/><use transform="matrix(0.010091145833333334,0,0,0.010091145833333334,53.291341145833336,0)" xlink:href="#O"/><use transform="matrix(0.010091145833333334,0,0,0.010091145833333334,59.8505859375,0)" xlink:href="#I"/><use transform="matrix(0.010091145833333334,0,0,0.010091145833333334,71.8994140625,0)" xlink:href="#ao"/></g><path d="M96 279C273-86 346-350 346-607c0-292-95-659-250-974h175c150 246 258 650 258 974 0 297-91 602-258 886H96" id="ap"/><g id="z"><use transform="matrix(0.010091145833333334,0,0,0.010091145833333334,0,0)" xlink:href="#am"/><use transform="matrix(0.010091145833333334,0,0,0.010091145833333334,15.802734375000002,0)" xlink:href="#K"/><use transform="matrix(0.010091145833333334,0,0,0.010091145833333334,28.45703125,0)" xlink:href="#M"/><use transform="matrix(0.010091145833333334,0,0,0.010091145833333334,36.2373046875,0)" xlink:href="#F"/><use transform="matrix(0.010091145833333334,0,0,0.010091145833333334,47.842122395833336,0)" xlink:href="#J"/><use transform="matrix(0.010091145833333334,0,0,0.010091145833333334,60.05240885416667,0)" xlink:href="#O"/><use transform="matrix(0.010091145833333334,0,0,0.010091145833333334,66.8134765625,0)" xlink:href="#ap"/></g><path d="M784 20c-382 0-662-292-662-764 0-473 280-766 662-766s660 293 660 766c0 472-278 764-660 764zm0-176c266 0 475-207 475-588 0-383-209-590-475-590-268 0-477 208-477 590 0 380 209 588 477 588" id="aq"/><g id="A"><use transform="matrix(0.009765625,0,0,0.009765625,0,0)" xlink:href="#aq"/><use transform="matrix(0.009765625,0,0,0.009765625,15.29296875,0)" xlink:href="#V"/><use transform="matrix(0.009765625,0,0,0.009765625,20.13671875,0)" xlink:href="#V"/><use transform="matrix(0.009765625,0,0,0.009765625,24.98046875,0)" xlink:href="#F"/><use transform="matrix(0.009765625,0,0,0.009765625,36.2109375,0)" xlink:href="#aa"/><use transform="matrix(0.009765625,0,0,0.009765625,53.73046875,0)" xlink:href="#F"/></g><g id="B"><use transform="matrix(0.010091145833333334,0,0,0.010091145833333334,0,0)" xlink:href="#W"/><use transform="matrix(0.010091145833333334,0,0,0.010091145833333334,12.422200520833334,0)" xlink:href="#aa"/><use transform="matrix(0.010091145833333334,0,0,0.010091145833333334,30.525716145833336,0)" xlink:href="#ad"/><use transform="matrix(0.010091145833333334,0,0,0.010091145833333334,43.180013020833336,0)" xlink:href="#I"/><use transform="matrix(0.010091145833333334,0,0,0.010091145833333334,55.228841145833336,0)" xlink:href="#K"/><use transform="matrix(0.010091145833333334,0,0,0.010091145833333334,67.88313802083334,0)" xlink:href="#K"/><use transform="matrix(0.010091145833333334,0,0,0.010091145833333334,80.53743489583334,0)" xlink:href="#R"/><use transform="matrix(0.010091145833333334,0,0,0.010091145833333334,85.54264322916667,0)" xlink:href="#J"/><use transform="matrix(0.010091145833333334,0,0,0.010091145833333334,97.7529296875,0)" xlink:href="#S"/></g><g id="C"><use transform="matrix(0.010091145833333334,0,0,0.010091145833333334,0,0)" xlink:href="#aa"/><use transform="matrix(0.010091145833333334,0,0,0.010091145833333334,18.103515625,0)" xlink:href="#N"/><use transform="matrix(0.010091145833333334,0,0,0.010091145833333334,30.495442708333336,0)" xlink:href="#K"/><use transform="matrix(0.010091145833333334,0,0,0.010091145833333334,43.149739583333336,0)" xlink:href="#I"/><use transform="matrix(0.010091145833333334,0,0,0.010091145833333334,55.198567708333336,0)" xlink:href="#V"/><use transform="matrix(0.010091145833333334,0,0,0.010091145833333334,60.20377604166667,0)" xlink:href="#Q"/></g><g id="D"><use transform="matrix(0.010091145833333334,0,0,0.010091145833333334,0,0)" xlink:href="#an"/><use transform="matrix(0.010091145833333334,0,0,0.010091145833333334,11.685546875,0)" xlink:href="#an"/><use transform="matrix(0.010091145833333334,0,0,0.010091145833333334,23.37109375,0)" xlink:href="#ag"/><use transform="matrix(0.010091145833333334,0,0,0.010091145833333334,42.03971354166667,0)" xlink:href="#Q"/></g></defs></g></svg>